<svg width="40" height="40" viewBox="0 0 40 40" fill="none" xmlns="http://www.w3.org/2000/svg">
<circle cx="20" cy="20" r="20" fill="#FFE0B2"/>
<path d="M23.3164 30.9092C23.2466 30.9092 23.1767 30.9092 23.0982 30.9092C21.8982 30.8656 20.6982 30.4423 19.5353 29.6667C17.8738 28.554 17.2989 26.5172 17.8564 23.7485C17.7473 23.6961 17.6513 23.6394 17.5509 23.574C17.3803 23.8362 17.2234 24.1072 17.0807 24.3856C16.7055 25.1274 16.5091 25.8911 16.3258 26.5521C16.1731 27.1281 16.0378 27.6256 15.8196 28.0314C15.5153 28.5932 15.0658 28.8987 14.4898 28.9423C12.8807 29.0601 10.9793 27.9049 9.96364 26.1911C9.42383 25.2845 9.14871 24.2449 9.16946 23.19C9.19564 21.99 9.59273 20.79 10.3553 19.6052C11.4025 17.9787 13.3455 17.3558 15.9985 17.7867C16.0378 17.7125 16.0815 17.6394 16.1251 17.5685C15.8215 17.3566 15.5057 17.1628 15.1793 16.9881C14.4364 16.5921 13.6836 16.3783 13.0182 16.1907C12.4465 16.0292 11.9502 15.8863 11.5487 15.6594C10.9902 15.3452 10.6891 14.8958 10.6585 14.3111C10.5669 12.702 11.7582 10.8201 13.4851 9.83833C14.3995 9.30951 15.4449 9.05043 16.5004 9.09105C17.7004 9.13469 18.9004 9.55796 20.0633 10.3347C21.6462 11.394 22.2451 13.3041 21.8087 15.882C22.0198 15.9851 22.2225 16.1044 22.4153 16.2387C22.5962 15.9632 22.7619 15.6781 22.9116 15.3845C23.2913 14.634 23.492 13.8801 23.6753 13.2125C23.828 12.6365 23.9633 12.1401 24.1815 11.7343C24.4858 11.1714 24.9353 10.8616 25.5113 10.8223C27.1204 10.7045 29.0218 11.8609 30.0375 13.5747C30.5773 14.4808 30.8524 15.5201 30.8316 16.5747C30.8055 17.7747 30.4084 18.9747 29.6458 20.1594C28.8124 21.4543 27.4171 22.1132 25.5506 22.1132C24.949 22.1098 24.3491 22.0514 23.7582 21.9387C23.6702 22.1038 23.571 22.2627 23.4615 22.4143C23.7733 22.6324 24.0979 22.8317 24.4335 23.0111C25.1753 23.4038 25.9302 23.6176 26.5924 23.8052C27.164 23.9667 27.6615 24.1107 28.0618 24.3376C28.6204 24.6518 28.9215 25.1012 28.952 25.6849C29.0436 27.294 27.8535 29.1758 26.1266 30.1576C25.2695 30.6443 24.3019 30.9031 23.3164 30.9092ZM17.3982 21.9823C17.5592 21.9815 17.7147 22.0406 17.8345 22.1481C18.1279 22.4096 18.4686 22.6125 18.8382 22.746C18.9901 22.8008 19.1164 22.91 19.1928 23.0523C19.2691 23.1947 19.2901 23.3603 19.2516 23.5172C18.6375 26.0121 18.9778 27.7129 20.2684 28.5714C22.6684 30.1761 24.5589 29.5445 25.4709 29.0252C26.9491 28.1798 27.6909 26.7092 27.6386 25.7525C27.6386 25.674 27.6298 25.5954 27.4116 25.4732C27.1455 25.3249 26.7222 25.2027 26.2291 25.0631C25.5407 24.8667 24.6811 24.6267 23.8182 24.1696C23.2162 23.8409 22.6417 23.4644 22.1 23.0438C22.0267 22.9865 21.9664 22.9142 21.9232 22.8318C21.88 22.7493 21.8548 22.6586 21.8495 22.5657C21.8441 22.4728 21.8586 22.3798 21.892 22.2929C21.9255 22.2061 21.977 22.1273 22.0433 22.062C22.36 21.7546 22.6067 21.3825 22.7666 20.9711C22.8234 20.8247 22.9308 20.7037 23.0694 20.63C23.208 20.5563 23.3684 20.5349 23.5215 20.5696C26.0164 21.1369 27.704 20.766 28.5396 19.4656C30.1051 17.0372 29.4429 15.162 28.9062 14.2587C28.0335 12.7936 26.5553 12.0769 25.6007 12.1489C25.5222 12.1489 25.4436 12.162 25.3258 12.3791C25.1818 12.6452 25.0684 13.0729 24.9331 13.5703C24.7498 14.2631 24.5186 15.1227 24.0789 15.9943C23.787 16.5549 23.4518 17.0918 23.0764 17.6001C23.0209 17.6768 22.9492 17.7402 22.8664 17.786C22.7837 17.8319 22.6918 17.8589 22.5975 17.8652C22.5029 17.8719 22.408 17.8582 22.3192 17.8251C22.2304 17.792 22.1497 17.7402 22.0826 17.6732C21.7419 17.3278 21.3232 17.0693 20.8618 16.9194C20.7064 16.8704 20.5751 16.7645 20.4942 16.623C20.4134 16.4814 20.3888 16.3146 20.4255 16.1558C20.9262 13.8409 20.5607 12.2536 19.3345 11.4332C16.928 9.81542 15.0396 10.4514 14.1276 10.9663C12.6538 11.8183 11.9131 13.2867 11.9655 14.2412C11.9655 14.3198 11.9742 14.3983 12.1913 14.5205C12.4575 14.6689 12.8807 14.7911 13.3738 14.9307C14.0622 15.1271 14.9218 15.3671 15.7847 15.8252C16.3589 16.1352 16.9062 16.4925 17.4211 16.8932C17.4921 16.9465 17.5513 17.014 17.5949 17.0914C17.6385 17.1687 17.6655 17.2543 17.6742 17.3427C17.6833 17.4308 17.6745 17.5198 17.6483 17.6043C17.622 17.6889 17.5789 17.7673 17.5215 17.8347C17.2923 18.106 17.1112 18.4144 16.9858 18.7467C16.9308 18.8928 16.8254 19.0145 16.6885 19.0897C16.5517 19.1649 16.3925 19.1887 16.2396 19.1569C13.8669 18.6638 12.2535 19.0478 11.4473 20.3078C9.88619 22.746 10.5484 24.6212 11.0851 25.5234C11.9578 26.9885 13.436 27.7052 14.3905 27.6343C14.4691 27.6343 14.5476 27.6212 14.6655 27.4031C14.8095 27.1369 14.9229 26.7092 15.0582 26.2129C15.2415 25.5191 15.4727 24.6605 15.9124 23.7878C16.1906 23.253 16.5085 22.74 16.8636 22.2529C16.9172 22.179 16.9857 22.1172 17.0646 22.0713C17.1435 22.0255 17.2311 21.9967 17.3218 21.9867C17.348 21.9867 17.3731 21.9867 17.3949 21.9867L17.3982 21.9823Z" fill="#ED5B27"/>
<path d="M13.1 10.9998L11.9 12.4998L11.4 13.9998L12.5 15.4998L15.6369 16.3998L16.7 16.9998L16.4 17.5998L16.2493 18.4998L15.5 18.1998L13.1 18.4998L11.3 19.0998L10.4 20.5998L9.8 21.4998V22.6998V23.5998V24.7998L10.7 25.9998L11.3 26.5998L12.2 27.7998L13.1 28.3998H14.3L15.2 27.7998L15.8 26.8998V25.9998L16.1 24.7998L16.7 23.5998L17.6 22.6998L18.5 22.9998L18.2 23.8998V25.3998L18.5 26.8998L20.3 29.2998L21.2 30.1998H23.9L25.7 29.8998L27.2 28.3998L28.4 26.8998L28.1 25.3998L26.6 24.4998L24.2 23.5998L22.7 22.3998L23.9 21.4998L27.5 21.1998L29 19.9998L29.9 18.4998L30.2 16.0998L29.3 13.3998L26 11.2998L24.8 11.5998L24.5 13.0998L23.9 15.1998L23 16.6998L22.7 17.2998L22.1 16.9998L21.2 16.3998V14.8998V13.0998L20.6 12.1998L19.7 11.2998L18.8 10.0998L17.3 9.7998L15.8 10.0998L15.2 10.3998L13.1 10.9998Z" fill="#ED5B27"/>
<path d="M19.6444 21.2359C19.9796 21.3265 20.337 21.2802 20.6381 21.1072C20.9391 20.9342 21.1591 20.6487 21.2497 20.3136C21.3403 19.9784 21.294 19.6209 21.121 19.3199C20.948 19.0188 20.6625 18.7988 20.3273 18.7083C19.9963 18.6308 19.6482 18.6851 19.3565 18.8598C19.0648 19.0344 18.8525 19.3157 18.7645 19.644C18.6765 19.9724 18.7197 20.3221 18.8849 20.6192C19.0502 20.9163 19.3245 21.1375 19.6499 21.2359H19.6444Z" fill="white"/>
</svg>
