<svg width="40" height="40" viewBox="0 0 40 40" fill="none" xmlns="http://www.w3.org/2000/svg">
<circle cx="20" cy="20" r="20" fill="#FFE0B2"/>
<g clip-path="url(#clip0_620_291)">
<path d="M24.5002 29.7501C24.5002 29.949 24.4212 30.1398 24.2805 30.2804C24.1399 30.4211 23.9491 30.5001 23.7502 30.5001H16.2502C16.0513 30.5001 15.8605 30.4211 15.7199 30.2804C15.5792 30.1398 15.5002 29.949 15.5002 29.7501C15.5002 29.5512 15.5792 29.3604 15.7199 29.2198C15.8605 29.0791 16.0513 29.0001 16.2502 29.0001H23.7502C23.9491 29.0001 24.1399 29.0791 24.2805 29.2198C24.4212 29.3604 24.5002 29.5512 24.5002 29.7501ZM28.2502 17.7501C28.2535 19.0004 27.971 20.2349 27.4244 21.3593C26.8778 22.4838 26.0815 23.4685 25.0963 24.2383C24.9124 24.3793 24.7631 24.5604 24.6597 24.7678C24.5564 24.9753 24.5019 25.2036 24.5002 25.4353V26.0001C24.4998 26.3978 24.3416 26.779 24.0604 27.0603C23.7792 27.3415 23.3979 27.4996 23.0002 27.5001H17.0002C16.6025 27.4996 16.2213 27.3415 15.9401 27.0603C15.6589 26.779 15.5007 26.3978 15.5002 26.0001V25.4347C15.4999 25.2054 15.4472 24.9792 15.3459 24.7735C15.2447 24.5678 15.0977 24.388 14.9162 24.2479C13.9339 23.4829 13.1384 22.5046 12.5899 21.387C12.0415 20.2693 11.7543 19.0415 11.7503 17.7965C11.7257 13.3282 15.3375 9.60749 19.8017 9.50239C20.9015 9.47593 21.9955 9.66971 23.0193 10.0723C24.0431 10.4749 24.9761 11.0782 25.7633 11.8467C26.5505 12.6152 27.176 13.5333 27.6031 14.5472C28.0302 15.561 28.2502 16.65 28.2502 17.7501ZM25.1763 16.8692C24.9942 15.798 24.4833 14.8101 23.7146 14.0423C22.9458 13.2745 21.9573 12.7649 20.8859 12.5841C20.7888 12.5676 20.6893 12.5705 20.5933 12.5925C20.4972 12.6146 20.4065 12.6553 20.3262 12.7124C20.2459 12.7695 20.1776 12.8419 20.1253 12.9254C20.073 13.0089 20.0377 13.1019 20.0213 13.1991C20.005 13.2963 20.008 13.3957 20.0301 13.4917C20.0522 13.5878 20.093 13.6785 20.1502 13.7587C20.2073 13.839 20.2798 13.9072 20.3633 13.9594C20.4469 14.0116 20.5399 14.0469 20.6371 14.0632C21.4013 14.1922 22.1064 14.5557 22.6547 15.1034C23.2031 15.6511 23.5675 16.3558 23.6974 17.1198C23.727 17.2944 23.8174 17.4528 23.9525 17.5672C24.0877 17.6815 24.2589 17.7443 24.436 17.7446C24.4783 17.7446 24.5205 17.741 24.5622 17.734C24.6593 17.7175 24.7522 17.6821 24.8357 17.6297C24.9191 17.5774 24.9914 17.5091 25.0484 17.4288C25.1054 17.3485 25.1461 17.2577 25.168 17.1617C25.19 17.0657 25.1928 16.9663 25.1763 16.8692Z" fill="#FF9900"/>
</g>
<defs>
<clipPath id="clip0_620_291">
<rect width="24" height="24" fill="white" transform="translate(8 8)"/>
</clipPath>
</defs>
</svg>
